<svg width="75" height="63" viewBox="0 0 75 63" fill="none" xmlns="http://www.w3.org/2000/svg">
<rect x="23.7871" y="11.4543" width="4.42116" height="16.4789" rx="2.21058" fill="white"/>
<rect x="30.4209" y="11.4543" width="4.42116" height="16.4789" rx="2.21058" fill="white"/>
<rect x="37.0513" width="4.42116" height="27.9337" rx="2.21058" fill="white"/>
<path d="M44.838 2.04352C45.5747 0.900146 47.1342 0.522909 48.3343 1.16135C49.5685 1.81822 49.989 3.32089 49.231 4.49887L49.2302 4.49997L38.8486 20.5395L38.843 20.5492L38.343 20.2119L38.842 20.5493C38.6329 20.8589 38.3562 21.1198 38.0339 21.3162C37.7118 21.5126 37.3504 21.6411 36.975 21.6939L36.9576 21.6963C36.8234 21.7112 36.6794 21.7195 36.5325 21.7164L36.5296 21.7168C36.0777 21.7053 35.6355 21.582 35.2495 21.355C34.863 21.1277 34.5457 20.8032 34.3366 20.4113L34.3353 20.4085L29.8479 11.8976C29.1967 10.6624 29.795 9.21159 31.0506 8.62949C32.2898 8.05507 33.8281 8.48014 34.4655 9.68873L36.9016 14.3105L44.838 2.04352Z" fill="white" stroke="#6565C8" stroke-width="1.20577"/>
<path d="M3.27168 48.7602H0.688776V37.2232H3.44388L7.57653 42.6818L9.16071 45.1097H9.35013L9.22959 42.7851V37.2232H11.8125V48.7602H9.0574L4.80421 43.25L3.34056 41.0804H3.16837L3.27168 43.1983V48.7602ZM22.9463 48.7602H13.1829V37.2232H22.9463V39.5478H15.7658V41.8036H22.688V44.111H15.7658V46.4356H22.9463V48.7602ZM26.7133 48.7602H23.3383L27.8326 43.0606V42.8712L23.3383 37.2232H26.7133L29.9506 41.3387H30.14L33.2567 37.2232H36.6317L32.1546 42.9228V43.1122L36.6317 48.7602H33.2567L30.0367 44.5931H29.8473L26.7133 48.7602ZM39.3475 48.7602H36.4547L41.4999 37.2232H45.1849L50.2646 48.7602H47.3029L46.218 46.2117H40.4495L39.3475 48.7602ZM42.5331 41.3731L41.4483 43.8871H45.2193L44.1345 41.3731L43.4285 39.5823H43.2391L42.5331 41.3731ZM56.7734 48.9324C52.9679 48.9324 50.6089 46.5906 50.6089 42.9917C50.6089 39.3929 52.9679 37.051 56.7734 37.051C60.355 37.051 62.6624 38.8418 62.6624 41.7691V42.0274H59.7868V41.7691C59.7868 40.2538 58.9258 39.5306 56.8251 39.5306C54.2938 39.5306 53.3467 40.426 53.3467 42.9917C53.3467 45.5574 54.2938 46.4528 56.8251 46.4528C58.9258 46.4528 59.7868 45.7296 59.7868 44.2143V43.956H62.6624V44.2143C62.6624 47.1416 60.3722 48.9324 56.7734 48.9324ZM70.2045 48.7602H67.6216V39.5478H63.334V37.2232H74.4921V39.5478H70.2045V48.7602Z" fill="white"/>
<path d="M9.11486 60.8222C8.82098 60.8222 8.56613 60.7487 8.35032 60.6018C8.1345 60.4503 7.98986 60.2505 7.91639 60.0026L7.99215 59.8786V60.4571C7.99215 60.5674 7.96231 60.6546 7.90261 60.7189C7.84292 60.7786 7.76026 60.8084 7.65465 60.8084C7.54445 60.8084 7.4595 60.7786 7.39981 60.7189C7.34011 60.6546 7.31026 60.5674 7.31026 60.4571V56.2074C7.31026 56.0926 7.34011 56.0054 7.39981 55.9457C7.4595 55.886 7.54445 55.8561 7.65465 55.8561C7.76486 55.8561 7.84981 55.886 7.9095 55.9457C7.97379 56.0054 8.00593 56.0926 8.00593 56.2074V58.136H7.92327C7.99674 57.8926 8.14139 57.6997 8.3572 57.5574C8.57302 57.4105 8.82557 57.337 9.11486 57.337C9.41792 57.337 9.67965 57.4082 9.90006 57.5505C10.1205 57.6929 10.2904 57.8926 10.4098 58.1497C10.5337 58.4069 10.5957 58.7168 10.5957 59.0796C10.5957 59.4332 10.5337 59.7431 10.4098 60.0094C10.2904 60.2712 10.1182 60.4732 9.89317 60.6156C9.67277 60.7533 9.41333 60.8222 9.11486 60.8222ZM8.94266 60.285C9.13552 60.285 9.30312 60.239 9.44547 60.1472C9.58782 60.0554 9.69802 59.9199 9.77608 59.7408C9.85414 59.5617 9.89317 59.3413 9.89317 59.0796C9.89317 58.6847 9.80593 58.3862 9.63144 58.1842C9.46154 57.9821 9.23195 57.8811 8.94266 57.8811C8.7544 57.8811 8.5868 57.927 8.43986 58.0189C8.29751 58.1061 8.18731 58.2393 8.10924 58.4184C8.03118 58.5975 7.99215 58.8179 7.99215 59.0796C7.99215 59.4699 8.0794 59.7684 8.25389 59.975C8.42838 60.1816 8.65797 60.285 8.94266 60.285ZM12.1112 62.0482C12.0286 62.0482 11.9597 62.0253 11.9046 61.9793C11.8541 61.938 11.8243 61.8806 11.8151 61.8071C11.8105 61.7383 11.8243 61.6625 11.8564 61.5799L12.3248 60.526V60.8222L11.0368 57.826C11.0046 57.7434 10.9931 57.6653 11.0023 57.5918C11.0115 57.5184 11.0459 57.461 11.1056 57.4196C11.1653 57.3737 11.2457 57.3508 11.3467 57.3508C11.4339 57.3508 11.5028 57.3714 11.5533 57.4128C11.6038 57.4541 11.6498 57.5253 11.6911 57.6263L12.7311 60.1954H12.5383L13.5921 57.6263C13.6334 57.5207 13.6817 57.4495 13.7368 57.4128C13.7919 57.3714 13.8676 57.3508 13.9641 57.3508C14.0467 57.3508 14.111 57.3737 14.1569 57.4196C14.2074 57.461 14.2373 57.5184 14.2465 57.5918C14.2602 57.6607 14.2487 57.7365 14.212 57.8191L12.4901 61.7796C12.4442 61.8852 12.3913 61.9564 12.3317 61.9931C12.2766 62.0299 12.2031 62.0482 12.1112 62.0482ZM17.1476 60.8084C17.0328 60.8084 16.9433 60.7763 16.879 60.712C16.8193 60.6477 16.7894 60.5582 16.7894 60.4434V56.2212C16.7894 56.1018 16.8193 56.0122 16.879 55.9526C16.9433 55.8883 17.0328 55.8561 17.1476 55.8561C17.2624 55.8561 17.3496 55.8883 17.4093 55.9526C17.4736 56.0122 17.5058 56.1018 17.5058 56.2212V60.4434C17.5058 60.5582 17.4759 60.6477 17.4162 60.712C17.3565 60.7763 17.267 60.8084 17.1476 60.8084ZM18.9011 60.8084C18.7909 60.8084 18.7059 60.7786 18.6462 60.7189C18.5865 60.6546 18.5567 60.5674 18.5567 60.4571V57.702C18.5567 57.5872 18.5865 57.5 18.6462 57.4403C18.7059 57.3806 18.7886 57.3508 18.8942 57.3508C19.0044 57.3508 19.087 57.3806 19.1421 57.4403C19.2018 57.5 19.2317 57.5872 19.2317 57.702V58.2393L19.1559 58.1153C19.2569 57.8582 19.4154 57.6653 19.6312 57.5367C19.847 57.4036 20.0949 57.337 20.375 57.337C20.6414 57.337 20.8618 57.3875 21.0363 57.4885C21.2154 57.585 21.3485 57.7342 21.4358 57.9362C21.523 58.1337 21.5666 58.3839 21.5666 58.687V60.4571C21.5666 60.5674 21.5368 60.6546 21.4771 60.7189C21.4174 60.7786 21.3324 60.8084 21.2222 60.8084C21.1074 60.8084 21.0202 60.7786 20.9605 60.7189C20.9008 60.6546 20.871 60.5674 20.871 60.4571V58.7283C20.871 58.439 20.8136 58.2278 20.6988 58.0946C20.5886 57.9615 20.4141 57.8949 20.1753 57.8949C19.8952 57.8949 19.6702 57.9821 19.5003 58.1566C19.335 58.3311 19.2523 58.5653 19.2523 58.8592V60.4571C19.2523 60.6913 19.1353 60.8084 18.9011 60.8084ZM23.703 60.8222C23.501 60.8222 23.292 60.7992 23.0762 60.7533C22.865 60.7074 22.6699 60.6293 22.4908 60.5191C22.4311 60.4778 22.3898 60.4319 22.3668 60.3814C22.3438 60.3309 22.3346 60.2804 22.3392 60.2299C22.3484 60.1747 22.3691 60.1288 22.4012 60.0921C22.438 60.0508 22.4816 60.0255 22.5321 60.0163C22.5872 60.0071 22.6446 60.0186 22.7043 60.0508C22.8834 60.1518 23.0556 60.223 23.2209 60.2643C23.3862 60.301 23.5492 60.3194 23.7099 60.3194C23.9533 60.3194 24.1369 60.2758 24.2609 60.1885C24.3849 60.1013 24.4469 59.9842 24.4469 59.8372C24.4469 59.7179 24.4056 59.626 24.3229 59.5617C24.2403 59.4929 24.1163 59.4401 23.951 59.4033L23.2966 59.2725C23.0119 59.2128 22.7961 59.1071 22.6492 58.9556C22.5023 58.8041 22.4288 58.6112 22.4288 58.377C22.4288 58.1658 22.4862 57.9821 22.601 57.826C22.7158 57.6699 22.8765 57.5505 23.0831 57.4679C23.2898 57.3806 23.5285 57.337 23.7994 57.337C24.0015 57.337 24.192 57.3622 24.3711 57.4128C24.5502 57.4633 24.7155 57.539 24.867 57.6401C24.9267 57.6722 24.9658 57.7158 24.9841 57.7709C25.0025 57.8214 25.0048 57.8719 24.991 57.9225C24.9818 57.973 24.9589 58.0189 24.9221 58.0602C24.8854 58.0969 24.8395 58.1199 24.7844 58.1291C24.7339 58.1337 24.6765 58.1199 24.6122 58.0878C24.4744 58.0005 24.3367 57.9385 24.1989 57.9018C24.0658 57.8651 23.9326 57.8467 23.7994 57.8467C23.5561 57.8467 23.3724 57.8926 23.2484 57.9844C23.129 58.0717 23.0693 58.1911 23.0693 58.3426C23.0693 58.4574 23.1061 58.5515 23.1795 58.625C23.253 58.6985 23.3678 58.7513 23.5239 58.7834L24.1783 58.9143C24.4767 58.974 24.7017 59.075 24.8533 59.2174C25.0094 59.3597 25.0875 59.5526 25.0875 59.7959C25.0875 60.1128 24.9612 60.363 24.7086 60.5467C24.4561 60.7304 24.1209 60.8222 23.703 60.8222ZM27.2605 60.8222C26.985 60.8222 26.7531 60.774 26.5648 60.6776C26.3766 60.5811 26.2365 60.4388 26.1447 60.2505C26.0528 60.0622 26.0069 59.8327 26.0069 59.5617V57.9362H25.5937C25.5018 57.9362 25.4306 57.9133 25.3801 57.8674C25.3296 57.8168 25.3044 57.7503 25.3044 57.6676C25.3044 57.5804 25.3296 57.5138 25.3801 57.4679C25.4306 57.4219 25.5018 57.399 25.5937 57.399H26.0069V56.6895C26.0069 56.5747 26.0368 56.4875 26.0965 56.4278C26.1607 56.3681 26.248 56.3383 26.3582 56.3383C26.4684 56.3383 26.5533 56.3681 26.613 56.4278C26.6727 56.4875 26.7026 56.5747 26.7026 56.6895V57.399H27.5084C27.6003 57.399 27.6715 57.4219 27.722 57.4679C27.7725 57.5138 27.7977 57.5804 27.7977 57.6676C27.7977 57.7503 27.7725 57.8168 27.722 57.8674C27.6715 57.9133 27.6003 57.9362 27.5084 57.9362H26.7026V59.5066C26.7026 59.75 26.7531 59.9337 26.8541 60.0577C26.9597 60.1816 27.1296 60.2436 27.3638 60.2436C27.4465 60.2436 27.5176 60.2367 27.5773 60.223C27.6416 60.2046 27.6944 60.1931 27.7357 60.1885C27.7863 60.1885 27.8276 60.2069 27.8597 60.2436C27.8919 60.2758 27.9079 60.3401 27.9079 60.4365C27.9079 60.5054 27.8942 60.5696 27.8666 60.6293C27.8437 60.689 27.8 60.7281 27.7357 60.7464C27.6806 60.7648 27.6049 60.7809 27.5084 60.7946C27.4166 60.813 27.334 60.8222 27.2605 60.8222ZM28.7484 60.8015C28.6382 60.8015 28.5533 60.7694 28.4936 60.7051C28.4339 60.6362 28.404 60.5421 28.404 60.4227V57.7365C28.404 57.6171 28.4339 57.5253 28.4936 57.461C28.5533 57.3967 28.6382 57.3645 28.7484 57.3645C28.8586 57.3645 28.9436 57.3967 29.0033 57.461C29.0675 57.5253 29.0997 57.6171 29.0997 57.7365V60.4227C29.0997 60.5421 29.0698 60.6362 29.0101 60.7051C28.9504 60.7694 28.8632 60.8015 28.7484 60.8015ZM28.7484 56.6482C28.6107 56.6482 28.5027 56.6138 28.4247 56.5449C28.3512 56.476 28.3145 56.3796 28.3145 56.2556C28.3145 56.127 28.3512 56.0306 28.4247 55.9663C28.5027 55.8975 28.6107 55.863 28.7484 55.863C28.8862 55.863 28.9918 55.8975 29.0652 55.9663C29.1433 56.0306 29.1823 56.127 29.1823 56.2556C29.1823 56.3796 29.1433 56.476 29.0652 56.5449C28.9918 56.6138 28.8862 56.6482 28.7484 56.6482ZM31.5115 60.8222C31.236 60.8222 31.0041 60.774 30.8159 60.6776C30.6276 60.5811 30.4875 60.4388 30.3957 60.2505C30.3039 60.0622 30.258 59.8327 30.258 59.5617V57.9362H29.8447C29.7529 57.9362 29.6817 57.9133 29.6312 57.8674C29.5807 57.8168 29.5554 57.7503 29.5554 57.6676C29.5554 57.5804 29.5807 57.5138 29.6312 57.4679C29.6817 57.4219 29.7529 57.399 29.8447 57.399H30.258V56.6895C30.258 56.5747 30.2878 56.4875 30.3475 56.4278C30.4118 56.3681 30.499 56.3383 30.6092 56.3383C30.7194 56.3383 30.8044 56.3681 30.8641 56.4278C30.9238 56.4875 30.9536 56.5747 30.9536 56.6895V57.399H31.7595C31.8513 57.399 31.9225 57.4219 31.973 57.4679C32.0235 57.5138 32.0488 57.5804 32.0488 57.6676C32.0488 57.7503 32.0235 57.8168 31.973 57.8674C31.9225 57.9133 31.8513 57.9362 31.7595 57.9362H30.9536V59.5066C30.9536 59.75 31.0041 59.9337 31.1051 60.0577C31.2108 60.1816 31.3807 60.2436 31.6148 60.2436C31.6975 60.2436 31.7687 60.2367 31.8284 60.223C31.8926 60.2046 31.9455 60.1931 31.9868 60.1885C32.0373 60.1885 32.0786 60.2069 32.1108 60.2436C32.1429 60.2758 32.159 60.3401 32.159 60.4365C32.159 60.5054 32.1452 60.5696 32.1176 60.6293C32.0947 60.689 32.0511 60.7281 31.9868 60.7464C31.9317 60.7648 31.8559 60.7809 31.7595 60.7946C31.6676 60.813 31.585 60.8222 31.5115 60.8222ZM33.793 60.8222C33.5221 60.8222 33.2948 60.7717 33.1111 60.6707C32.932 60.5696 32.7966 60.4204 32.7047 60.223C32.6175 60.0209 32.5739 59.7684 32.5739 59.4653V57.702C32.5739 57.5827 32.6037 57.4954 32.6634 57.4403C32.7231 57.3806 32.808 57.3508 32.9182 57.3508C33.0284 57.3508 33.1134 57.3806 33.1731 57.4403C33.2374 57.4954 33.2695 57.5827 33.2695 57.702V59.4722C33.2695 59.7431 33.3246 59.9429 33.4348 60.0714C33.545 60.2 33.7195 60.2643 33.9583 60.2643C34.22 60.2643 34.4313 60.177 34.592 60.0026C34.7573 59.8235 34.8399 59.5893 34.8399 59.3V57.702C34.8399 57.5827 34.8698 57.4954 34.9295 57.4403C34.9892 57.3806 35.0764 57.3508 35.1912 57.3508C35.3014 57.3508 35.3864 57.3806 35.446 57.4403C35.5057 57.4954 35.5356 57.5827 35.5356 57.702V60.4571C35.5356 60.6913 35.4231 60.8084 35.1981 60.8084C35.0925 60.8084 35.0098 60.7786 34.9501 60.7189C34.8904 60.6546 34.8606 60.5674 34.8606 60.4571V59.8717L34.9501 60.0232C34.8583 60.2804 34.7114 60.4778 34.5093 60.6156C34.3073 60.7533 34.0685 60.8222 33.793 60.8222ZM37.9486 60.8222C37.6731 60.8222 37.4412 60.774 37.253 60.6776C37.0647 60.5811 36.9246 60.4388 36.8328 60.2505C36.741 60.0622 36.695 59.8327 36.695 59.5617V57.9362H36.2818C36.1899 57.9362 36.1188 57.9133 36.0683 57.8674C36.0178 57.8168 35.9925 57.7503 35.9925 57.6676C35.9925 57.5804 36.0178 57.5138 36.0683 57.4679C36.1188 57.4219 36.1899 57.399 36.2818 57.399H36.695V56.6895C36.695 56.5747 36.7249 56.4875 36.7846 56.4278C36.8489 56.3681 36.9361 56.3383 37.0463 56.3383C37.1565 56.3383 37.2415 56.3681 37.3012 56.4278C37.3609 56.4875 37.3907 56.5747 37.3907 56.6895V57.399H38.1966C38.2884 57.399 38.3596 57.4219 38.4101 57.4679C38.4606 57.5138 38.4859 57.5804 38.4859 57.6676C38.4859 57.7503 38.4606 57.8168 38.4101 57.8674C38.3596 57.9133 38.2884 57.9362 38.1966 57.9362H37.3907V59.5066C37.3907 59.75 37.4412 59.9337 37.5422 60.0577C37.6479 60.1816 37.8178 60.2436 38.0519 60.2436C38.1346 60.2436 38.2058 60.2367 38.2655 60.223C38.3297 60.2046 38.3825 60.1931 38.4239 60.1885C38.4744 60.1885 38.5157 60.2069 38.5479 60.2436C38.58 60.2758 38.5961 60.3401 38.5961 60.4365C38.5961 60.5054 38.5823 60.5696 38.5547 60.6293C38.5318 60.689 38.4882 60.7281 38.4239 60.7464C38.3688 60.7648 38.293 60.7809 38.1966 60.7946C38.1047 60.813 38.0221 60.8222 37.9486 60.8222ZM41.3092 60.7602C41.1852 60.7602 41.0888 60.7281 41.0199 60.6638C40.9556 60.5949 40.9235 60.4985 40.9235 60.3745V56.2901C40.9235 56.1661 40.9556 56.0719 41.0199 56.0077C41.0888 55.9388 41.1852 55.9043 41.3092 55.9043H42.6385C43.4375 55.9043 44.0528 56.1133 44.4845 56.5311C44.9207 56.9444 45.1388 57.5436 45.1388 58.3288C45.1388 58.7191 45.0837 59.0658 44.9735 59.3689C44.8633 59.6719 44.7003 59.9268 44.4845 60.1334C44.2732 60.3355 44.0138 60.4916 43.7061 60.6018C43.3985 60.7074 43.0426 60.7602 42.6385 60.7602H41.3092ZM41.6398 60.161H42.5972C42.9003 60.161 43.162 60.1242 43.3824 60.0508C43.6074 59.9727 43.7957 59.8579 43.9472 59.7064C44.0987 59.5549 44.2112 59.3643 44.2847 59.1347C44.3582 58.9051 44.3949 58.6365 44.3949 58.3288C44.3949 57.7181 44.2434 57.2612 43.9403 56.9582C43.6419 56.6551 43.1941 56.5036 42.5972 56.5036H41.6398V60.161ZM47.5976 60.8222C47.2302 60.8222 46.9134 60.7533 46.6471 60.6156C46.3853 60.4732 46.181 60.2735 46.034 60.0163C45.8917 59.7546 45.8205 59.4446 45.8205 59.0865C45.8205 58.7375 45.8917 58.4321 46.034 58.1704C46.1764 57.9087 46.3715 57.7043 46.6195 57.5574C46.8675 57.4105 47.1499 57.337 47.4667 57.337C47.7009 57.337 47.9098 57.376 48.0935 57.4541C48.2772 57.5276 48.4333 57.6378 48.5618 57.7847C48.695 57.927 48.7937 58.1015 48.858 58.3082C48.9269 58.5148 48.9613 58.7467 48.9613 59.0038C48.9613 59.0819 48.9384 59.1416 48.8925 59.1829C48.8465 59.2196 48.7777 59.238 48.6858 59.238H46.3715V58.811H48.493L48.3759 58.9074C48.3759 58.6778 48.3414 58.4827 48.2726 58.3219C48.2083 58.1612 48.1096 58.0395 47.9764 57.9569C47.8478 57.8696 47.6871 57.826 47.4942 57.826C47.2784 57.826 47.0948 57.8765 46.9432 57.9776C46.7963 58.0786 46.6838 58.2186 46.6057 58.3977C46.5277 58.5768 46.4886 58.7857 46.4886 59.0245V59.0658C46.4886 59.4699 46.5828 59.7753 46.771 59.9819C46.9639 60.1839 47.2417 60.285 47.6044 60.285C47.7422 60.285 47.8868 60.2666 48.0384 60.2299C48.1945 60.1931 48.3414 60.1311 48.4792 60.0439C48.5573 59.998 48.6261 59.9773 48.6858 59.9819C48.7501 59.9865 48.8006 60.0071 48.8374 60.0439C48.8787 60.0806 48.9039 60.1265 48.9131 60.1816C48.9223 60.2367 48.9131 60.2941 48.8856 60.3538C48.858 60.4089 48.8098 60.4594 48.7409 60.5054C48.5848 60.611 48.4034 60.6913 48.1968 60.7464C47.9902 60.7969 47.7904 60.8222 47.5976 60.8222ZM50.8011 60.8222C50.443 60.8222 50.172 60.7189 49.9884 60.5122C49.8093 60.301 49.7197 59.998 49.7197 59.6031V56.2074C49.7197 56.0926 49.7496 56.0054 49.8093 55.9457C49.869 55.886 49.9539 55.8561 50.0641 55.8561C50.1743 55.8561 50.2593 55.886 50.319 55.9457C50.3833 56.0054 50.4154 56.0926 50.4154 56.2074V59.5617C50.4154 59.7913 50.4613 59.9635 50.5532 60.0783C50.6496 60.1885 50.7873 60.2436 50.9664 60.2436C51.0078 60.2436 51.0445 60.2436 51.0766 60.2436C51.1088 60.239 51.1409 60.2344 51.1731 60.2299C51.2282 60.2253 51.2672 60.2413 51.2902 60.2781C51.3131 60.3102 51.3246 60.3791 51.3246 60.4847C51.3246 60.5811 51.3039 60.6569 51.2626 60.712C51.2213 60.7625 51.1547 60.7946 51.0629 60.8084C51.0215 60.813 50.9779 60.8153 50.932 60.8153C50.8861 60.8199 50.8424 60.8222 50.8011 60.8222ZM52.8996 60.8222C52.6654 60.8222 52.4542 60.7763 52.2659 60.6844C52.0822 60.5926 51.9376 60.4686 51.832 60.3125C51.7264 60.1564 51.6736 59.9796 51.6736 59.7821C51.6736 59.5342 51.7355 59.339 51.8595 59.1967C51.9881 59.0497 52.197 58.9464 52.4863 58.8867C52.7802 58.8225 53.1751 58.7903 53.671 58.7903H53.9947V59.2174H53.6779C53.3473 59.2174 53.0855 59.2334 52.8927 59.2656C52.6998 59.2977 52.5621 59.3528 52.4794 59.4309C52.4014 59.5043 52.3623 59.6077 52.3623 59.7408C52.3623 59.9153 52.422 60.0577 52.5414 60.1679C52.6608 60.2735 52.8261 60.3263 53.0373 60.3263C53.2072 60.3263 53.3565 60.2872 53.485 60.2092C53.6136 60.1265 53.7146 60.0163 53.7881 59.8786C53.8662 59.7408 53.9052 59.5824 53.9052 59.4033V58.6112C53.9052 58.3495 53.8501 58.1612 53.7399 58.0464C53.6297 57.9316 53.4483 57.8742 53.1957 57.8742C53.0488 57.8742 52.895 57.8926 52.7343 57.9293C52.5781 57.9661 52.4151 58.0281 52.2452 58.1153C52.1672 58.152 52.1006 58.1635 52.0455 58.1497C51.9904 58.136 51.9468 58.1061 51.9146 58.0602C51.8825 58.0097 51.8641 57.9569 51.8595 57.9018C51.8595 57.8421 51.8733 57.7847 51.9008 57.7296C51.933 57.6745 51.9858 57.6332 52.0593 57.6056C52.2613 57.5092 52.4611 57.4403 52.6585 57.399C52.856 57.3577 53.0419 57.337 53.2164 57.337C53.5241 57.337 53.7766 57.3852 53.9741 57.4816C54.1761 57.5781 54.3253 57.725 54.4218 57.9225C54.5182 58.1199 54.5664 58.3747 54.5664 58.687V60.4571C54.5664 60.5674 54.5389 60.6546 54.4838 60.7189C54.4287 60.7786 54.3483 60.8084 54.2427 60.8084C54.1417 60.8084 54.0613 60.7786 54.0016 60.7189C53.9419 60.6546 53.9121 60.5674 53.9121 60.4571V60.0094H53.9741C53.9373 60.1793 53.8685 60.3263 53.7674 60.4503C53.671 60.5696 53.5493 60.6615 53.4024 60.7258C53.2554 60.7901 53.0878 60.8222 52.8996 60.8222ZM56.283 62.0482C56.2004 62.0482 56.1315 62.0253 56.0764 61.9793C56.0259 61.938 55.996 61.8806 55.9868 61.8071C55.9823 61.7383 55.996 61.6625 56.0282 61.5799L56.4965 60.526V60.8222L55.2085 57.826C55.1764 57.7434 55.1649 57.6653 55.1741 57.5918C55.1833 57.5184 55.2177 57.461 55.2774 57.4196C55.3371 57.3737 55.4175 57.3508 55.5185 57.3508C55.6057 57.3508 55.6746 57.3714 55.7251 57.4128C55.7756 57.4541 55.8215 57.5253 55.8629 57.6263L56.9029 60.1954H56.7101L57.7639 57.6263C57.8052 57.5207 57.8534 57.4495 57.9085 57.4128C57.9636 57.3714 58.0394 57.3508 58.1358 57.3508C58.2185 57.3508 58.2828 57.3737 58.3287 57.4196C58.3792 57.461 58.409 57.5184 58.4182 57.5918C58.432 57.6607 58.4205 57.7365 58.3838 57.8191L56.6618 61.7796C56.6159 61.8852 56.5631 61.9564 56.5034 61.9931C56.4483 62.0299 56.3749 62.0482 56.283 62.0482ZM60.0766 60.8222C59.8424 60.8222 59.6312 60.7763 59.4429 60.6844C59.2592 60.5926 59.1146 60.4686 59.009 60.3125C58.9033 60.1564 58.8505 59.9796 58.8505 59.7821C58.8505 59.5342 58.9125 59.339 59.0365 59.1967C59.1651 59.0497 59.374 58.9464 59.6633 58.8867C59.9572 58.8225 60.3521 58.7903 60.848 58.7903H61.1717V59.2174H60.8549C60.5243 59.2174 60.2625 59.2334 60.0697 59.2656C59.8768 59.2977 59.7391 59.3528 59.6564 59.4309C59.5783 59.5043 59.5393 59.6077 59.5393 59.7408C59.5393 59.9153 59.599 60.0577 59.7184 60.1679C59.8378 60.2735 60.0031 60.3263 60.2143 60.3263C60.3842 60.3263 60.5334 60.2872 60.662 60.2092C60.7906 60.1265 60.8916 60.0163 60.9651 59.8786C61.0431 59.7408 61.0822 59.5824 61.0822 59.4033V58.6112C61.0822 58.3495 61.0271 58.1612 60.9169 58.0464C60.8067 57.9316 60.6253 57.8742 60.3727 57.8742C60.2258 57.8742 60.072 57.8926 59.9113 57.9293C59.7551 57.9661 59.5921 58.0281 59.4222 58.1153C59.3442 58.152 59.2776 58.1635 59.2225 58.1497C59.1674 58.136 59.1238 58.1061 59.0916 58.0602C59.0595 58.0097 59.0411 57.9569 59.0365 57.9018C59.0365 57.8421 59.0503 57.7847 59.0778 57.7296C59.11 57.6745 59.1628 57.6332 59.2363 57.6056C59.4383 57.5092 59.638 57.4403 59.8355 57.399C60.0329 57.3577 60.2189 57.337 60.3934 57.337C60.701 57.337 60.9536 57.3852 61.151 57.4816C61.3531 57.5781 61.5023 57.725 61.5988 57.9225C61.6952 58.1199 61.7434 58.3747 61.7434 58.687V60.4571C61.7434 60.5674 61.7158 60.6546 61.6607 60.7189C61.6056 60.7786 61.5253 60.8084 61.4197 60.8084C61.3187 60.8084 61.2383 60.7786 61.1786 60.7189C61.1189 60.6546 61.0891 60.5674 61.0891 60.4571V60.0094H61.151C61.1143 60.1793 61.0454 60.3263 60.9444 60.4503C60.848 60.5696 60.7263 60.6615 60.5794 60.7258C60.4324 60.7901 60.2648 60.8222 60.0766 60.8222ZM63.0597 60.8084C62.9495 60.8084 62.8646 60.7786 62.8049 60.7189C62.7452 60.6546 62.7153 60.5674 62.7153 60.4571V57.702C62.7153 57.5872 62.7452 57.5 62.8049 57.4403C62.8646 57.3806 62.9472 57.3508 63.0528 57.3508C63.163 57.3508 63.2457 57.3806 63.3008 57.4403C63.3605 57.5 63.3903 57.5872 63.3903 57.702V58.2668L63.3146 58.1153C63.4064 57.8719 63.5487 57.6814 63.7416 57.5436C63.9345 57.4059 64.1663 57.337 64.4373 57.337C64.7174 57.337 64.9447 57.4036 65.1192 57.5367C65.2936 57.6699 65.413 57.8742 65.4773 58.1497H65.3809C65.4681 57.8972 65.6174 57.6997 65.8286 57.5574C66.0398 57.4105 66.2855 57.337 66.5656 57.337C66.8227 57.337 67.0339 57.3875 67.1993 57.4885C67.3646 57.585 67.4885 57.7342 67.5712 57.9362C67.6538 58.1337 67.6952 58.3839 67.6952 58.687V60.4571C67.6952 60.5674 67.663 60.6546 67.5987 60.7189C67.539 60.7786 67.4541 60.8084 67.3439 60.8084C67.2337 60.8084 67.1487 60.7786 67.089 60.7189C67.0294 60.6546 66.9995 60.5674 66.9995 60.4571V58.7214C66.9995 58.4367 66.949 58.2278 66.848 58.0946C66.7515 57.9615 66.5908 57.8949 66.3658 57.8949C66.1133 57.8949 65.9135 57.9821 65.7666 58.1566C65.6197 58.3311 65.5462 58.5722 65.5462 58.8799V60.4571C65.5462 60.5674 65.5163 60.6546 65.4567 60.7189C65.397 60.7786 65.312 60.8084 65.2018 60.8084C65.0916 60.8084 65.0044 60.7786 64.9401 60.7189C64.8804 60.6546 64.8505 60.5674 64.8505 60.4571V58.7214C64.8505 58.4367 64.8023 58.2278 64.7059 58.0946C64.6095 57.9615 64.4487 57.8949 64.2237 57.8949C63.9712 57.8949 63.7714 57.9821 63.6245 58.1566C63.4822 58.3311 63.411 58.5722 63.411 58.8799V60.4571C63.411 60.6913 63.2939 60.8084 63.0597 60.8084Z" fill="white"/>
</svg>
