<svg width="220" height="84" viewBox="0 0 220 84" fill="none" xmlns="http://www.w3.org/2000/svg">
<rect x="91.8145" y="15.8916" width="5.86304" height="21.8531" rx="2.93152" fill="#4B4BC0"/>
<rect x="100.611" y="15.8916" width="5.86304" height="21.8531" rx="2.93152" fill="#4B4BC0"/>
<rect x="109.405" y="0.702148" width="5.86304" height="37.0437" rx="2.93152" fill="#4B4BC0"/>
<path d="M119.73 3.41454C120.706 1.89677 122.776 1.39548 124.368 2.24285C126.005 3.11398 126.562 5.10675 125.557 6.66886L125.556 6.67093L111.789 27.9406L111.785 27.947L111.78 27.9536C111.502 28.3642 111.135 28.7103 110.708 28.9708C110.281 29.2312 109.8 29.4012 109.302 29.4711L109.292 29.4736L109.28 29.4742C109.102 29.494 108.911 29.5058 108.716 29.5017L108.713 29.5021C108.114 29.4869 107.527 29.3236 107.015 29.0225C106.502 28.7211 106.081 28.2905 105.804 27.7708L105.803 27.768L99.852 16.4797C98.9886 14.8417 99.7819 12.918 101.447 12.1462C103.091 11.3844 105.13 11.9487 105.975 13.5517L109.206 19.6797L119.73 3.41454Z" fill="#FF7E14" stroke="white" stroke-width="1.59901"/>
<path d="M56.15 68.8203H50.9V45.3703H56.5L64.9 56.4653L68.12 61.4003H68.505L68.26 56.6753V45.3703H73.51V68.8203H67.91L59.265 57.6203L56.29 53.2103H55.94L56.15 57.5153V68.8203ZM89.4565 68.8203H76.5089V53.5207H89.4565V56.6035H79.9342V59.5949H89.1139V62.6548H79.9342V65.7376H89.4565V68.8203ZM94.9087 68.8203H90.433L96.393 61.2619V61.0107L90.433 53.5207H94.9087L99.2017 58.9783H99.4529L103.586 53.5207H108.062L102.125 61.0792V61.3304L108.062 68.8203H103.586L99.3159 63.2942H99.0647L94.9087 68.8203ZM114.103 68.8203H108.223L118.478 45.3703H125.968L136.293 68.8203H130.273L128.068 63.6403H116.343L114.103 68.8203ZM120.578 53.8053L118.373 58.9153H126.038L123.833 53.8053L122.398 50.1653H122.013L120.578 53.8053ZM145.563 69.0487C140.517 69.0487 137.388 65.9431 137.388 61.1705C137.388 56.398 140.517 53.2924 145.563 53.2924C150.313 53.2924 153.373 55.6672 153.373 59.5492V59.8918H149.56V59.5492C149.56 57.5397 148.418 56.5807 145.632 56.5807C142.275 56.5807 141.019 57.7681 141.019 61.1705C141.019 64.573 142.275 65.7604 145.632 65.7604C148.418 65.7604 149.56 64.8013 149.56 62.7918V62.4493H153.373V62.7918C153.373 66.6738 150.336 69.0487 145.563 69.0487ZM163.832 68.8203H160.406V56.6035H154.72V53.5207H169.518V56.6035H163.832V68.8203Z" fill="#4B4BC0"/>
<path d="M72.3575 80.3801C71.9678 80.3801 71.6299 80.2826 71.3437 80.0878C71.0575 79.8868 70.8657 79.6219 70.7682 79.2931L70.8687 79.1287V79.896C70.8687 80.0421 70.8291 80.1578 70.75 80.243C70.6708 80.3222 70.5612 80.3618 70.4211 80.3618C70.275 80.3618 70.1623 80.3222 70.0832 80.243C70.004 80.1578 69.9644 80.0421 69.9644 79.896V74.2602C69.9644 74.108 70.004 73.9923 70.0832 73.9131C70.1623 73.834 70.275 73.7944 70.4211 73.7944C70.5673 73.7944 70.6799 73.834 70.7591 73.9131C70.8443 73.9923 70.887 74.108 70.887 74.2602V76.8178H70.7774C70.8748 76.495 71.0666 76.2393 71.3528 76.0505C71.639 75.8556 71.9739 75.7582 72.3575 75.7582C72.7594 75.7582 73.1065 75.8526 73.3988 76.0414C73.6911 76.2301 73.9164 76.495 74.0748 76.836C74.2392 77.177 74.3214 77.5881 74.3214 78.0691C74.3214 78.538 74.2392 78.9491 74.0748 79.3022C73.9164 79.6493 73.6881 79.9173 73.3897 80.106C73.0974 80.2887 72.7534 80.3801 72.3575 80.3801ZM72.1292 79.6676C72.385 79.6676 72.6072 79.6067 72.796 79.4849C72.9848 79.3631 73.1309 79.1835 73.2344 78.946C73.3379 78.7085 73.3897 78.4162 73.3897 78.0691C73.3897 77.5455 73.274 77.1496 73.0426 76.8817C72.8173 76.6138 72.5128 76.4798 72.1292 76.4798C71.8795 76.4798 71.6573 76.5407 71.4624 76.6625C71.2736 76.7782 71.1275 76.9548 71.024 77.1923C70.9205 77.4298 70.8687 77.722 70.8687 78.0691C70.8687 78.5867 70.9844 78.9825 71.2158 79.2566C71.4472 79.5306 71.7517 79.6676 72.1292 79.6676ZM76.3312 82.0059C76.2215 82.0059 76.1302 81.9755 76.0571 81.9146C75.9901 81.8598 75.9506 81.7837 75.9384 81.6862C75.9323 81.5949 75.9506 81.4944 75.9932 81.3848L76.6143 79.9873V80.3801L74.9062 76.4067C74.8636 76.2971 74.8484 76.1936 74.8606 76.0962C74.8727 75.9987 74.9184 75.9226 74.9976 75.8678C75.0767 75.8069 75.1833 75.7765 75.3173 75.7765C75.433 75.7765 75.5243 75.8039 75.5913 75.8587C75.6583 75.9135 75.7192 76.0079 75.774 76.1418L77.1532 79.5489H76.8975L78.295 76.1418C78.3498 76.0018 78.4137 75.9074 78.4868 75.8587C78.5599 75.8039 78.6603 75.7765 78.7882 75.7765C78.8978 75.7765 78.9831 75.8069 79.044 75.8678C79.111 75.9226 79.1505 75.9987 79.1627 76.0962C79.181 76.1875 79.1658 76.288 79.117 76.3976L76.8335 81.6497C76.7726 81.7898 76.7026 81.8841 76.6234 81.9329C76.5504 81.9816 76.4529 82.0059 76.3312 82.0059ZM83.01 80.3618C82.8578 80.3618 82.739 80.3192 82.6538 80.2339C82.5746 80.1487 82.5351 80.0299 82.5351 79.8777V74.2785C82.5351 74.1202 82.5746 74.0014 82.6538 73.9223C82.739 73.837 82.8578 73.7944 83.01 73.7944C83.1623 73.7944 83.278 73.837 83.3571 73.9223C83.4424 74.0014 83.485 74.1202 83.485 74.2785V79.8777C83.485 80.0299 83.4454 80.1487 83.3663 80.2339C83.2871 80.3192 83.1683 80.3618 83.01 80.3618ZM85.3354 80.3618C85.1892 80.3618 85.0766 80.3222 84.9974 80.243C84.9182 80.1578 84.8787 80.0421 84.8787 79.896V76.2423C84.8787 76.0901 84.9182 75.9744 84.9974 75.8952C85.0766 75.8161 85.1862 75.7765 85.3262 75.7765C85.4724 75.7765 85.582 75.8161 85.655 75.8952C85.7342 75.9744 85.7738 76.0901 85.7738 76.2423V76.9548L85.6733 76.7904C85.8073 76.4494 86.0174 76.1936 86.3036 76.0231C86.5898 75.8465 86.9186 75.7582 87.29 75.7582C87.6432 75.7582 87.9355 75.8252 88.1669 75.9592C88.4044 76.087 88.581 76.2849 88.6967 76.5529C88.8124 76.8147 88.8702 77.1466 88.8702 77.5485V79.896C88.8702 80.0421 88.8307 80.1578 88.7515 80.243C88.6723 80.3222 88.5597 80.3618 88.4135 80.3618C88.2613 80.3618 88.1456 80.3222 88.0664 80.243C87.9873 80.1578 87.9477 80.0421 87.9477 79.896V77.6033C87.9477 77.2197 87.8716 76.9396 87.7193 76.763C87.5732 76.5864 87.3418 76.4981 87.0252 76.4981C86.6537 76.4981 86.3553 76.6138 86.13 76.8452C85.9108 77.0766 85.8012 77.3871 85.8012 77.7768V79.896C85.8012 80.2065 85.6459 80.3618 85.3354 80.3618ZM91.7034 80.3801C91.4354 80.3801 91.1584 80.3496 90.8722 80.2887C90.5921 80.2278 90.3333 80.1243 90.0958 79.9782C90.0166 79.9234 89.9618 79.8625 89.9314 79.7955C89.9009 79.7285 89.8887 79.6615 89.8948 79.5945C89.907 79.5215 89.9344 79.4606 89.977 79.4118C90.0257 79.357 90.0836 79.3236 90.1506 79.3114C90.2237 79.2992 90.2998 79.3144 90.3789 79.357C90.6164 79.491 90.8448 79.5854 91.064 79.6402C91.2832 79.6889 91.4994 79.7133 91.7125 79.7133C92.0352 79.7133 92.2788 79.6554 92.4432 79.5397C92.6076 79.424 92.6899 79.2687 92.6899 79.0739C92.6899 78.9156 92.635 78.7938 92.5254 78.7085C92.4158 78.6172 92.2514 78.5472 92.0322 78.4984L91.1645 78.3249C90.7869 78.2457 90.5007 78.1057 90.3059 77.9047C90.111 77.7038 90.0136 77.448 90.0136 77.1375C90.0136 76.8574 90.0897 76.6138 90.2419 76.4067C90.3942 76.1997 90.6073 76.0414 90.8813 75.9318C91.1553 75.8161 91.472 75.7582 91.8313 75.7582C92.0992 75.7582 92.3519 75.7917 92.5894 75.8587C92.8269 75.9257 93.0461 76.0261 93.247 76.1601C93.3262 76.2027 93.378 76.2606 93.4023 76.3337C93.4267 76.4006 93.4297 76.4676 93.4114 76.5346C93.3993 76.6016 93.3688 76.6625 93.3201 76.7173C93.2714 76.766 93.2105 76.7965 93.1374 76.8086C93.0704 76.8147 92.9943 76.7965 92.9091 76.7538C92.7264 76.6381 92.5437 76.5559 92.361 76.5072C92.1844 76.4585 92.0078 76.4341 91.8313 76.4341C91.5085 76.4341 91.2649 76.495 91.1005 76.6168C90.9422 76.7325 90.863 76.8908 90.863 77.0918C90.863 77.244 90.9118 77.3689 91.0092 77.4663C91.1066 77.5637 91.2588 77.6337 91.4659 77.6764L92.3336 77.8499C92.7294 77.9291 93.0278 78.063 93.2288 78.2518C93.4358 78.4406 93.5393 78.6963 93.5393 79.0191C93.5393 79.4392 93.3719 79.7711 93.0369 80.0147C92.702 80.2583 92.2575 80.3801 91.7034 80.3801ZM96.4211 80.3801C96.0557 80.3801 95.7482 80.3161 95.4985 80.1882C95.2489 80.0604 95.0631 79.8716 94.9413 79.6219C94.8195 79.3723 94.7587 79.0678 94.7587 78.7085V76.5529H94.2106C94.0888 76.5529 93.9944 76.5224 93.9275 76.4615C93.8605 76.3946 93.827 76.3063 93.827 76.1967C93.827 76.081 93.8605 75.9927 93.9275 75.9318C93.9944 75.8709 94.0888 75.8404 94.2106 75.8404H94.7587V74.8996C94.7587 74.7474 94.7982 74.6317 94.8774 74.5525C94.9626 74.4734 95.0783 74.4338 95.2245 74.4338C95.3706 74.4338 95.4833 74.4734 95.5625 74.5525C95.6416 74.6317 95.6812 74.7474 95.6812 74.8996V75.8404H96.7499C96.8717 75.8404 96.9661 75.8709 97.033 75.9318C97.1 75.9927 97.1335 76.081 97.1335 76.1967C97.1335 76.3063 97.1 76.3946 97.033 76.4615C96.9661 76.5224 96.8717 76.5529 96.7499 76.5529H95.6812V78.6354C95.6812 78.9582 95.7482 79.2018 95.8821 79.3662C96.0222 79.5306 96.2475 79.6128 96.5581 79.6128C96.6677 79.6128 96.7621 79.6037 96.8412 79.5854C96.9265 79.561 96.9965 79.5458 97.0513 79.5397C97.1183 79.5397 97.1731 79.5641 97.2157 79.6128C97.2583 79.6554 97.2797 79.7407 97.2797 79.8686C97.2797 79.9599 97.2614 80.0451 97.2249 80.1243C97.1944 80.2035 97.1366 80.2552 97.0513 80.2796C96.9782 80.3039 96.8778 80.3253 96.7499 80.3435C96.6281 80.3679 96.5185 80.3801 96.4211 80.3801ZM98.3942 80.3527C98.2481 80.3527 98.1354 80.31 98.0563 80.2248C97.9771 80.1334 97.9375 80.0086 97.9375 79.8503V76.288C97.9375 76.1297 97.9771 76.0079 98.0563 75.9226C98.1354 75.8374 98.2481 75.7948 98.3942 75.7948C98.5404 75.7948 98.653 75.8374 98.7322 75.9226C98.8174 76.0079 98.8601 76.1297 98.8601 76.288V79.8503C98.8601 80.0086 98.8205 80.1334 98.7413 80.2248C98.6622 80.31 98.5465 80.3527 98.3942 80.3527ZM98.3942 74.8448C98.2115 74.8448 98.0684 74.7991 97.9649 74.7078C97.8675 74.6165 97.8188 74.4886 97.8188 74.3242C97.8188 74.1537 97.8675 74.0258 97.9649 73.9405C98.0684 73.8492 98.2115 73.8035 98.3942 73.8035C98.5769 73.8035 98.717 73.8492 98.8144 73.9405C98.9179 74.0258 98.9697 74.1537 98.9697 74.3242C98.9697 74.4886 98.9179 74.6165 98.8144 74.7078C98.717 74.7991 98.5769 74.8448 98.3942 74.8448ZM102.058 80.3801C101.693 80.3801 101.386 80.3161 101.136 80.1882C100.886 80.0604 100.701 79.8716 100.579 79.6219C100.457 79.3723 100.396 79.0678 100.396 78.7085V76.5529H99.848C99.7263 76.5529 99.6319 76.5224 99.5649 76.4615C99.4979 76.3946 99.4644 76.3063 99.4644 76.1967C99.4644 76.081 99.4979 75.9927 99.5649 75.9318C99.6319 75.8709 99.7263 75.8404 99.848 75.8404H100.396V74.8996C100.396 74.7474 100.436 74.6317 100.515 74.5525C100.6 74.4734 100.716 74.4338 100.862 74.4338C101.008 74.4338 101.121 74.4734 101.2 74.5525C101.279 74.6317 101.319 74.7474 101.319 74.8996V75.8404H102.387C102.509 75.8404 102.603 75.8709 102.67 75.9318C102.737 75.9927 102.771 76.081 102.771 76.1967C102.771 76.3063 102.737 76.3946 102.67 76.4615C102.603 76.5224 102.509 76.5529 102.387 76.5529H101.319V78.6354C101.319 78.9582 101.386 79.2018 101.52 79.3662C101.66 79.5306 101.885 79.6128 102.196 79.6128C102.305 79.6128 102.399 79.6037 102.479 79.5854C102.564 79.561 102.634 79.5458 102.689 79.5397C102.756 79.5397 102.811 79.5641 102.853 79.6128C102.896 79.6554 102.917 79.7407 102.917 79.8686C102.917 79.9599 102.899 80.0451 102.862 80.1243C102.832 80.2035 102.774 80.2552 102.689 80.2796C102.616 80.3039 102.515 80.3253 102.387 80.3435C102.266 80.3679 102.156 80.3801 102.058 80.3801ZM105.084 80.3801C104.725 80.3801 104.423 80.3131 104.18 80.1791C103.942 80.0451 103.763 79.8472 103.641 79.5854C103.525 79.3175 103.467 78.9825 103.467 78.5806V76.2423C103.467 76.084 103.507 75.9683 103.586 75.8952C103.665 75.8161 103.778 75.7765 103.924 75.7765C104.07 75.7765 104.183 75.8161 104.262 75.8952C104.347 75.9683 104.39 76.084 104.39 76.2423V78.5898C104.39 78.9491 104.463 79.2139 104.609 79.3844C104.755 79.5549 104.987 79.6402 105.303 79.6402C105.65 79.6402 105.93 79.5245 106.144 79.2931C106.363 79.0556 106.472 78.7451 106.472 78.3614V76.2423C106.472 76.084 106.512 75.9683 106.591 75.8952C106.67 75.8161 106.786 75.7765 106.938 75.7765C107.084 75.7765 107.197 75.8161 107.276 75.8952C107.355 75.9683 107.395 76.084 107.395 76.2423V79.896C107.395 80.2065 107.246 80.3618 106.947 80.3618C106.807 80.3618 106.698 80.3222 106.619 80.243C106.539 80.1578 106.5 80.0421 106.5 79.896V79.1196L106.619 79.3205C106.497 79.6615 106.302 79.9234 106.034 80.106C105.766 80.2887 105.449 80.3801 105.084 80.3801ZM110.595 80.3801C110.23 80.3801 109.922 80.3161 109.672 80.1882C109.423 80.0604 109.237 79.8716 109.115 79.6219C108.993 79.3723 108.933 79.0678 108.933 78.7085V76.5529H108.384C108.263 76.5529 108.168 76.5224 108.101 76.4615C108.034 76.3946 108.001 76.3063 108.001 76.1967C108.001 76.081 108.034 75.9927 108.101 75.9318C108.168 75.8709 108.263 75.8404 108.384 75.8404H108.933V74.8996C108.933 74.7474 108.972 74.6317 109.051 74.5525C109.137 74.4734 109.252 74.4338 109.398 74.4338C109.545 74.4338 109.657 74.4734 109.736 74.5525C109.815 74.6317 109.855 74.7474 109.855 74.8996V75.8404H110.924C111.046 75.8404 111.14 75.8709 111.207 75.9318C111.274 75.9927 111.307 76.081 111.307 76.1967C111.307 76.3063 111.274 76.3946 111.207 76.4615C111.14 76.5224 111.046 76.5529 110.924 76.5529H109.855V78.6354C109.855 78.9582 109.922 79.2018 110.056 79.3662C110.196 79.5306 110.421 79.6128 110.732 79.6128C110.842 79.6128 110.936 79.6037 111.015 79.5854C111.1 79.561 111.17 79.5458 111.225 79.5397C111.292 79.5397 111.347 79.5641 111.39 79.6128C111.432 79.6554 111.454 79.7407 111.454 79.8686C111.454 79.9599 111.435 80.0451 111.399 80.1243C111.368 80.2035 111.31 80.2552 111.225 80.2796C111.152 80.3039 111.052 80.3253 110.924 80.3435C110.802 80.3679 110.692 80.3801 110.595 80.3801ZM115.051 80.2979C114.887 80.2979 114.759 80.2552 114.668 80.17C114.583 80.0786 114.54 79.9508 114.54 79.7863V74.3698C114.54 74.2054 114.583 74.0806 114.668 73.9953C114.759 73.904 114.887 73.8583 115.051 73.8583H116.814C117.874 73.8583 118.69 74.1354 119.262 74.6895C119.841 75.2376 120.13 76.0322 120.13 77.0735C120.13 77.5911 120.057 78.0509 119.911 78.4528C119.765 78.8547 119.549 79.1926 119.262 79.4667C118.982 79.7346 118.638 79.9416 118.23 80.0878C117.822 80.2278 117.35 80.2979 116.814 80.2979H115.051ZM115.49 79.5032H116.76C117.161 79.5032 117.509 79.4545 117.801 79.357C118.099 79.2535 118.349 79.1013 118.55 78.9003C118.751 78.6994 118.9 78.4467 118.997 78.1422C119.095 77.8377 119.144 77.4815 119.144 77.0735C119.144 76.2636 118.943 75.6577 118.541 75.2558C118.145 74.8539 117.551 74.653 116.76 74.653H115.49V79.5032ZM123.391 80.3801C122.904 80.3801 122.483 80.2887 122.13 80.106C121.783 79.9173 121.512 79.6524 121.317 79.3114C121.128 78.9643 121.034 78.5532 121.034 78.0783C121.034 77.6155 121.128 77.2105 121.317 76.8634C121.506 76.5163 121.765 76.2454 122.094 76.0505C122.422 75.8556 122.797 75.7582 123.217 75.7582C123.528 75.7582 123.805 75.81 124.048 75.9135C124.292 76.0109 124.499 76.1571 124.669 76.3519C124.846 76.5407 124.977 76.7721 125.062 77.0461C125.154 77.3201 125.199 77.6277 125.199 77.9687C125.199 78.0722 125.169 78.1513 125.108 78.2061C125.047 78.2549 124.956 78.2792 124.834 78.2792H121.765V77.7129H124.578L124.423 77.8408C124.423 77.5363 124.377 77.2775 124.286 77.0644C124.201 76.8513 124.07 76.6899 123.893 76.5803C123.723 76.4646 123.509 76.4067 123.254 76.4067C122.967 76.4067 122.724 76.4737 122.523 76.6077C122.328 76.7417 122.179 76.9274 122.075 77.1649C121.972 77.4023 121.92 77.6794 121.92 77.9961V78.0509C121.92 78.5867 122.045 78.9917 122.295 79.2657C122.55 79.5336 122.919 79.6676 123.4 79.6676C123.583 79.6676 123.774 79.6432 123.975 79.5945C124.182 79.5458 124.377 79.4636 124.56 79.3479C124.663 79.287 124.755 79.2596 124.834 79.2657C124.919 79.2718 124.986 79.2992 125.035 79.3479C125.09 79.3966 125.123 79.4575 125.135 79.5306C125.147 79.6037 125.135 79.6798 125.099 79.7589C125.062 79.832 124.998 79.899 124.907 79.9599C124.7 80.0999 124.459 80.2065 124.185 80.2796C123.911 80.3466 123.646 80.3801 123.391 80.3801ZM127.639 80.3801C127.164 80.3801 126.805 80.243 126.561 79.969C126.324 79.6889 126.205 79.287 126.205 78.7633V74.2602C126.205 74.108 126.245 73.9923 126.324 73.9131C126.403 73.834 126.516 73.7944 126.662 73.7944C126.808 73.7944 126.92 73.834 127 73.9131C127.085 73.9923 127.128 74.108 127.128 74.2602V78.7085C127.128 79.013 127.188 79.2413 127.31 79.3936C127.438 79.5397 127.621 79.6128 127.858 79.6128C127.913 79.6128 127.962 79.6128 128.004 79.6128C128.047 79.6067 128.09 79.6006 128.132 79.5945C128.205 79.5884 128.257 79.6098 128.288 79.6585C128.318 79.7011 128.333 79.7924 128.333 79.9325C128.333 80.0604 128.306 80.1608 128.251 80.2339C128.196 80.3009 128.108 80.3435 127.986 80.3618C127.931 80.3679 127.873 80.3709 127.813 80.3709C127.752 80.377 127.694 80.3801 127.639 80.3801ZM130.422 80.3801C130.111 80.3801 129.831 80.3192 129.582 80.1974C129.338 80.0756 129.146 79.9112 129.006 79.7041C128.866 79.4971 128.796 79.2627 128.796 79.0008C128.796 78.672 128.878 78.4132 129.043 78.2244C129.213 78.0296 129.49 77.8925 129.874 77.8134C130.264 77.7281 130.787 77.6855 131.445 77.6855H131.874V78.2518H131.454C131.016 78.2518 130.668 78.2731 130.413 78.3158C130.157 78.3584 129.974 78.4315 129.865 78.535C129.761 78.6324 129.709 78.7694 129.709 78.946C129.709 79.1774 129.789 79.3662 129.947 79.5123C130.105 79.6524 130.324 79.7224 130.605 79.7224C130.83 79.7224 131.028 79.6706 131.198 79.5671C131.369 79.4575 131.503 79.3114 131.6 79.1287C131.704 78.946 131.755 78.7359 131.755 78.4984V77.448C131.755 77.1009 131.682 76.8513 131.536 76.699C131.39 76.5468 131.15 76.4707 130.815 76.4707C130.62 76.4707 130.416 76.495 130.203 76.5437C129.996 76.5925 129.779 76.6747 129.554 76.7904C129.451 76.8391 129.362 76.8543 129.289 76.836C129.216 76.8178 129.158 76.7782 129.116 76.7173C129.073 76.6503 129.049 76.5803 129.043 76.5072C129.043 76.428 129.061 76.3519 129.097 76.2789C129.14 76.2058 129.21 76.151 129.307 76.1144C129.575 75.9866 129.84 75.8952 130.102 75.8404C130.364 75.7856 130.611 75.7582 130.842 75.7582C131.25 75.7582 131.585 75.8222 131.847 75.95C132.115 76.0779 132.313 76.2728 132.44 76.5346C132.568 76.7965 132.632 77.1344 132.632 77.5485V79.896C132.632 80.0421 132.596 80.1578 132.523 80.243C132.45 80.3222 132.343 80.3618 132.203 80.3618C132.069 80.3618 131.962 80.3222 131.883 80.243C131.804 80.1578 131.765 80.0421 131.765 79.896V79.3022H131.847C131.798 79.5275 131.707 79.7224 131.573 79.8868C131.445 80.0451 131.284 80.1669 131.089 80.2522C130.894 80.3374 130.672 80.3801 130.422 80.3801ZM134.909 82.0059C134.799 82.0059 134.708 81.9755 134.635 81.9146C134.568 81.8598 134.528 81.7837 134.516 81.6862C134.51 81.5949 134.528 81.4944 134.571 81.3848L135.192 79.9873V80.3801L133.484 76.4067C133.441 76.2971 133.426 76.1936 133.438 76.0962C133.45 75.9987 133.496 75.9226 133.575 75.8678C133.654 75.8069 133.761 75.7765 133.895 75.7765C134.011 75.7765 134.102 75.8039 134.169 75.8587C134.236 75.9135 134.297 76.0079 134.352 76.1418L135.731 79.5489H135.475L136.873 76.1418C136.927 76.0018 136.991 75.9074 137.064 75.8587C137.137 75.8039 137.238 75.7765 137.366 75.7765C137.475 75.7765 137.561 75.8069 137.622 75.8678C137.689 75.9226 137.728 75.9987 137.74 76.0962C137.759 76.1875 137.743 76.288 137.695 76.3976L135.411 81.6497C135.35 81.7898 135.28 81.8841 135.201 81.9329C135.128 81.9816 135.031 82.0059 134.909 82.0059ZM139.939 80.3801C139.629 80.3801 139.349 80.3192 139.099 80.1974C138.856 80.0756 138.664 79.9112 138.524 79.7041C138.384 79.4971 138.314 79.2627 138.314 79.0008C138.314 78.672 138.396 78.4132 138.56 78.2244C138.731 78.0296 139.008 77.8925 139.391 77.8134C139.781 77.7281 140.305 77.6855 140.963 77.6855H141.392V78.2518H140.972C140.533 78.2518 140.186 78.2731 139.93 78.3158C139.675 78.3584 139.492 78.4315 139.382 78.535C139.279 78.6324 139.227 78.7694 139.227 78.946C139.227 79.1774 139.306 79.3662 139.465 79.5123C139.623 79.6524 139.842 79.7224 140.122 79.7224C140.347 79.7224 140.545 79.6706 140.716 79.5671C140.886 79.4575 141.02 79.3114 141.118 79.1287C141.221 78.946 141.273 78.7359 141.273 78.4984V77.448C141.273 77.1009 141.2 76.8513 141.054 76.699C140.908 76.5468 140.667 76.4707 140.332 76.4707C140.137 76.4707 139.933 76.495 139.72 76.5437C139.513 76.5925 139.297 76.6747 139.072 76.7904C138.968 76.8391 138.88 76.8543 138.807 76.836C138.734 76.8178 138.676 76.7782 138.633 76.7173C138.591 76.6503 138.566 76.5803 138.56 76.5072C138.56 76.428 138.579 76.3519 138.615 76.2789C138.658 76.2058 138.728 76.151 138.825 76.1144C139.093 75.9866 139.358 75.8952 139.62 75.8404C139.882 75.7856 140.128 75.7582 140.36 75.7582C140.768 75.7582 141.103 75.8222 141.364 75.95C141.632 76.0779 141.83 76.2728 141.958 76.5346C142.086 76.7965 142.15 77.1344 142.15 77.5485V79.896C142.15 80.0421 142.113 80.1578 142.04 80.243C141.967 80.3222 141.861 80.3618 141.721 80.3618C141.587 80.3618 141.48 80.3222 141.401 80.243C141.322 80.1578 141.282 80.0421 141.282 79.896V79.3022H141.364C141.316 79.5275 141.224 79.7224 141.09 79.8868C140.963 80.0451 140.801 80.1669 140.606 80.2522C140.411 80.3374 140.189 80.3801 139.939 80.3801ZM143.896 80.3618C143.749 80.3618 143.637 80.3222 143.558 80.243C143.478 80.1578 143.439 80.0421 143.439 79.896V76.2423C143.439 76.0901 143.478 75.9744 143.558 75.8952C143.637 75.8161 143.746 75.7765 143.886 75.7765C144.033 75.7765 144.142 75.8161 144.215 75.8952C144.294 75.9744 144.334 76.0901 144.334 76.2423V76.9913L144.234 76.7904C144.355 76.4676 144.544 76.2149 144.8 76.0322C145.056 75.8496 145.363 75.7582 145.722 75.7582C146.094 75.7582 146.395 75.8465 146.627 76.0231C146.858 76.1997 147.016 76.4707 147.102 76.836H146.974C147.089 76.5011 147.287 76.2393 147.567 76.0505C147.848 75.8556 148.173 75.7582 148.545 75.7582C148.886 75.7582 149.166 75.8252 149.385 75.9592C149.604 76.087 149.769 76.2849 149.878 76.5529C149.988 76.8147 150.043 77.1466 150.043 77.5485V79.896C150.043 80.0421 150 80.1578 149.915 80.243C149.836 80.3222 149.723 80.3618 149.577 80.3618C149.431 80.3618 149.318 80.3222 149.239 80.243C149.16 80.1578 149.12 80.0421 149.12 79.896V77.5942C149.12 77.2166 149.053 76.9396 148.919 76.763C148.791 76.5864 148.578 76.4981 148.28 76.4981C147.945 76.4981 147.68 76.6138 147.485 76.8452C147.29 77.0766 147.193 77.3963 147.193 77.8042V79.896C147.193 80.0421 147.153 80.1578 147.074 80.243C146.995 80.3222 146.882 80.3618 146.736 80.3618C146.59 80.3618 146.474 80.3222 146.389 80.243C146.31 80.1578 146.27 80.0421 146.27 79.896V77.5942C146.27 77.2166 146.206 76.9396 146.079 76.763C145.951 76.5864 145.738 76.4981 145.439 76.4981C145.104 76.4981 144.839 76.6138 144.645 76.8452C144.456 77.0766 144.361 77.3963 144.361 77.8042V79.896C144.361 80.2065 144.206 80.3618 143.896 80.3618Z" fill="#4B4BC0"/>
</svg>
